<?xml version="1.0" encoding="UTF-8"?>
<svg viewBox="0 0 51 51" xmlns="http://www.w3.org/2000/svg">
    <rect width="51" height="51" rx="8.5" fill="#00AC66"/>
    <a transform="translate(8 11)" fill="#fff">
        <path d="m0.59566 7.512c0.047827-0.42248 0.071741-1.0084 0.071741-1.7577 0-1.4268-0.055799-3.045-0.1674-4.8545 1.5544 0.047828 4.2248 0.071742 8.0111 0.071742 3.7704 0 6.4288-0.023914 7.9752-0.071742-0.1116 1.8095-0.1674 3.4276-0.1674 4.8545 0 0.74929 0.0239 1.3352 0.0718 1.7577h-0.562c-0.5341-2.1443-1.2276-3.6867-2.0805-4.6273-0.8449-0.94858-1.7577-1.4229-2.7381-1.4229h-0.0239v14.013c0 0.6855 0.0677 1.1837 0.2032 1.4946 0.1435 0.3109 0.3986 0.5182 0.7653 0.6218s0.9486 0.1554 1.7457 0.1554v0.4903c-2.2957-0.0479-4.0853-0.0718-5.3687-0.0718-1.1558 0-2.8338 0.0239-5.0338 0.0718v-0.4903c0.79712 0 1.379-0.0518 1.7457-0.1554 0.36667-0.1036 0.61777-0.3109 0.75328-0.6218 0.14348-0.3109 0.21522-0.8091 0.21522-1.4946v-14.013h-0.02391c-0.99641 0-1.9171 0.47031-2.762 1.4109-0.83698 0.93264-1.5265 2.4791-2.0685 4.6393h-0.56198z"/>
        <path d="m16.921 15.675c0.0478-0.4224 0.0717-1.0083 0.0717-1.7576 0-1.4269-0.0558-3.045-0.1674-4.8545 1.5544 0.04783 4.2248 0.07174 8.0111 0.07174 3.7704 0 6.4288-0.02391 7.9752-0.07174-0.1116 1.8095-0.1674 3.4276-0.1674 4.8545 0 0.7493 0.0239 1.3352 0.0718 1.7576h-0.562c-0.5341-2.1442-1.2276-3.6867-2.0805-4.6273-0.845-0.9485-1.7577-1.4228-2.7381-1.4228h-0.0239v14.013c0 0.6855 0.0677 1.1837 0.2032 1.4946 0.1435 0.3109 0.3986 0.5182 0.7653 0.6218 0.3666 0.1036 0.9485 0.1554 1.7457 0.1554v0.4903c-2.2957-0.0479-4.0853-0.0718-5.3687-0.0718-1.1558 0-2.8337 0.0239-5.0338 0.0718v-0.4903c0.7971 0 1.379-0.0518 1.7457-0.1554s0.6178-0.3109 0.7533-0.6218c0.1435-0.3109 0.2152-0.8091 0.2152-1.4946v-14.013h-0.0239c-0.9964 0-1.9171 0.47033-2.762 1.4109-0.837 0.9326-1.5265 2.479-2.0686 4.6392h-0.5619z"/>
    </a>
</svg>